<svg xmlns="http://www.w3.org/2000/svg" width="29.156" height="20.719" viewBox="0 0 29.156 20.719">
  <defs>
    <style>
      .cls-1 {
        fill: #fff;
        fill-rule: evenodd;
      }
    </style>
  </defs>
  <path id="email" class="cls-1" d="M999.743,721.77l-8.846,8.874,8.846,8.875a2.578,2.578,0,0,0,.257-1.109V722.878A2.573,2.573,0,0,0,999.743,721.77Zm-2.307-1.48H973.4a2.51,2.51,0,0,0-1.1.259L983.6,731.908a2.547,2.547,0,0,0,3.625,0l11.306-11.359A2.51,2.51,0,0,0,997.436,720.29Zm-26.346,1.48a2.573,2.573,0,0,0-.257,1.108V738.41a2.578,2.578,0,0,0,.257,1.109l8.846-8.875Zm18.6,10.094-1.252,1.264a4.247,4.247,0,0,1-6.041,0l-1.252-1.264-8.846,8.875a2.511,2.511,0,0,0,1.1.26h24.039a2.511,2.511,0,0,0,1.1-.26Z" transform="translate(-970.844 -720.281)"/>
</svg>
