<svg xmlns="http://www.w3.org/2000/svg" width="28.344" height="28.156" viewBox="0 0 28.344 28.156">
  <defs>
    <style>
      .cls-1 {
        fill: #fff;
        fill-rule: evenodd;
      }
    </style>
  </defs>
  <path id="skype" class="cls-1" d="M623.15,726.12a12.94,12.94,0,0,0,.162-2.04,13.107,13.107,0,0,0-13.146-13.067,13.335,13.335,0,0,0-2.051.161A7.954,7.954,0,0,0,596,717.9a7.839,7.839,0,0,0,1.182,4.147,13.3,13.3,0,0,0-.16,2.039,13.163,13.163,0,0,0,15.2,12.907,7.954,7.954,0,0,0,12.115-6.722A7.814,7.814,0,0,0,623.15,726.12Zm-6.743,3.9a5.449,5.449,0,0,1-2.44,1.865,9.782,9.782,0,0,1-3.794.671,9.112,9.112,0,0,1-4.342-.919,5.61,5.61,0,0,1-1.976-1.766,3.821,3.821,0,0,1-.766-2.162,1.434,1.434,0,0,1,.469-1.07,1.678,1.678,0,0,1,1.193-.445,1.5,1.5,0,0,1,1,.347,2.659,2.659,0,0,1,.683,1.012,6.333,6.333,0,0,0,.721,1.286,2.858,2.858,0,0,0,1.082.843,4.282,4.282,0,0,0,1.842.333,4.413,4.413,0,0,0,2.548-.672,1.95,1.95,0,0,0,.967-1.657,1.655,1.655,0,0,0-.516-1.272,3.443,3.443,0,0,0-1.363-.759q-0.843-.266-2.265-0.563a17.883,17.883,0,0,1-3.2-.966,5.192,5.192,0,0,1-2.059-1.516,3.754,3.754,0,0,1-.765-2.4,3.892,3.892,0,0,1,.807-2.421,5.025,5.025,0,0,1,2.328-1.626,10.19,10.19,0,0,1,3.562-.565,9.5,9.5,0,0,1,2.83.374,6.22,6.22,0,0,1,1.989,1,4.274,4.274,0,0,1,1.161,1.312,2.863,2.863,0,0,1,.369,1.35,1.64,1.64,0,0,1-1.64,1.592,1.417,1.417,0,0,1-.973-0.3,3.843,3.843,0,0,1-.705-0.944,4.215,4.215,0,0,0-1.141-1.419,3.527,3.527,0,0,0-2.132-.5,3.943,3.943,0,0,0-2.2.55,1.552,1.552,0,0,0-.823,1.3,1.248,1.248,0,0,0,.275.807,2.343,2.343,0,0,0,.777.594,5.45,5.45,0,0,0,1.012.4c0.344,0.1.915,0.237,1.709,0.423q1.492,0.319,2.709.711a8.534,8.534,0,0,1,2.072.951,4.006,4.006,0,0,1,1.346,1.426,4.253,4.253,0,0,1,.485,2.11A4.571,4.571,0,0,1,616.407,730.023Z" transform="translate(-596 -710)"/>
</svg>
